<svg xmlns="http://www.w3.org/2000/svg" xmlns:xlink="http://www.w3.org/1999/xlink" width="500" zoomAndPan="magnify" viewBox="0 0 375 374.999991" height="500" preserveAspectRatio="xMidYMid meet" version="1.0"><defs><g/><clipPath id="f884884d2e"><path d="M 18.15625 6.140625 L 273 6.140625 L 273 369 L 18.15625 369 Z M 18.15625 6.140625 " clip-rule="nonzero"/></clipPath></defs><rect x="-37.5" width="450" fill="#ffffff" y="-37.499999" height="449.999989" fill-opacity="1"/><rect x="-37.5" width="450" fill="#343434" y="-37.499999" height="449.999989" fill-opacity="1"/><path fill="#ffffff" d="M 198.902344 285.578125 C 192.609375 285.578125 187.484375 290.699219 187.484375 296.992188 C 187.484375 303.289062 192.609375 308.414062 198.902344 308.414062 C 205.195312 308.414062 210.320312 303.289062 210.320312 296.992188 C 210.320312 290.699219 205.195312 285.578125 198.902344 285.578125 Z M 198.902344 332.589844 C 179.277344 332.589844 163.304688 316.617188 163.304688 296.992188 C 163.304688 277.371094 179.277344 261.398438 198.902344 261.398438 C 218.523438 261.398438 234.5 277.371094 234.5 296.992188 C 234.5 316.617188 218.523438 332.589844 198.902344 332.589844 " fill-opacity="1" fill-rule="nonzero"/><path fill="#ffffff" d="M 221.558594 291.433594 L 204.460938 274.335938 L 336.109375 142.691406 L 353.207031 159.785156 L 221.558594 291.433594 " fill-opacity="1" fill-rule="nonzero"/><path fill="#ffffff" d="M 321.152344 285.578125 C 314.855469 285.578125 309.730469 290.699219 309.730469 296.992188 C 309.730469 303.289062 314.855469 308.414062 321.152344 308.414062 C 327.441406 308.414062 332.566406 303.289062 332.566406 296.992188 C 332.566406 290.699219 327.441406 285.578125 321.152344 285.578125 Z M 321.152344 332.589844 C 301.527344 332.589844 285.550781 316.617188 285.550781 296.992188 C 285.550781 277.371094 301.527344 261.398438 321.152344 261.398438 C 340.773438 261.398438 356.746094 277.371094 356.746094 296.992188 C 356.746094 316.617188 340.773438 332.589844 321.152344 332.589844 " fill-opacity="1" fill-rule="nonzero"/><path fill="#ffffff" d="M 298.492188 291.433594 L 166.847656 159.785156 L 183.941406 142.691406 L 315.589844 274.335938 L 298.492188 291.433594 " fill-opacity="1" fill-rule="nonzero"/><g clip-path="url(#f884884d2e)"><path fill="#ffffff" d="M 235.871094 368.863281 L 54.46875 368.863281 C 34.480469 368.863281 18.222656 352.601562 18.222656 332.617188 L 18.222656 42.402344 C 18.222656 22.410156 34.480469 6.152344 54.46875 6.152344 L 235.871094 6.152344 C 255.859375 6.152344 272.117188 22.410156 272.117188 42.402344 L 272.117188 175.417969 L 247.9375 175.417969 L 247.9375 42.402344 C 247.9375 35.742188 242.527344 30.332031 235.871094 30.332031 L 54.46875 30.332031 C 47.808594 30.332031 42.402344 35.742188 42.402344 42.402344 L 42.402344 332.617188 C 42.402344 339.273438 47.808594 344.683594 54.46875 344.683594 L 235.871094 344.683594 C 242.527344 344.683594 247.9375 339.273438 247.9375 332.617188 L 247.9375 296.320312 L 272.117188 296.320312 L 272.117188 332.617188 C 272.117188 352.601562 255.859375 368.863281 235.871094 368.863281 " fill-opacity="1" fill-rule="nonzero"/></g><g fill="#ffffff" fill-opacity="1"><g transform="translate(25.171878, 202.399981)"><g><path d="M 2.671875 -5.03125 L 5.015625 -5.03125 C 6.097656 -5.03125 6.898438 -4.828125 7.421875 -4.421875 C 7.953125 -4.015625 8.21875 -3.410156 8.21875 -2.609375 C 8.21875 -1.753906 7.9375 -1.101562 7.375 -0.65625 C 6.820312 -0.21875 6.007812 0 4.9375 0 L 1.375 0 L 1.375 -8.5625 L 2.671875 -8.5625 Z M 10.953125 0 L 9.65625 0 L 9.65625 -8.5625 L 10.953125 -8.5625 Z M 2.671875 -3.90625 L 2.671875 -1.09375 L 4.875 -1.09375 C 6.25 -1.09375 6.9375 -1.570312 6.9375 -2.53125 C 6.9375 -3.007812 6.773438 -3.359375 6.453125 -3.578125 C 6.140625 -3.796875 5.597656 -3.90625 4.828125 -3.90625 Z M 2.671875 -3.90625 "/></g></g></g></svg>